HIERARCHY
ROOT Hips
{
	OFFSET 0.00 86.18 0.00
	CHANNELS 6 Xposition Yposition Zposition Yrotation Xrotation Zrotation
	JOINT RightUpLeg
	{
		OFFSET -9.25 0.00 0.00
		CHANNELS 6 Xposition Yposition Zposition Yrotation Xrotation Zrotation
		JOINT RightLeg
		{
			OFFSET 0.00 -42.00 0.00
			CHANNELS 6 Xposition Yposition Zposition Yrotation Xrotation Zrotation
			JOINT RightFoot
			{
				OFFSET 0.00 -42.00 0.00
				CHANNELS 6 Xposition Yposition Zposition Yrotation Xrotation Zrotation
				End Site
				{
					OFFSET 0 -1.14 11.36
				}
			}
		}
	}
	JOINT LeftUpLeg
	{
		OFFSET 9.25 0.00 0.00
		CHANNELS 6 Xposition Yposition Zposition Yrotation Xrotation Zrotation
		JOINT LeftLeg
		{
			OFFSET 0.00 -42.00 0.00
			CHANNELS 6 Xposition Yposition Zposition Yrotation Xrotation Zrotation
			JOINT LeftFoot
			{
				OFFSET 0.00 -42.00 0.00
				CHANNELS 6 Xposition Yposition Zposition Yrotation Xrotation Zrotation
				End Site
				{
					OFFSET 0 -1.14 11.36
				}
			}
		}
	}
	JOINT Spine
	{
		OFFSET 0.00 10.46 0.00
		CHANNELS 6 Xposition Yposition Zposition Yrotation Xrotation Zrotation
		JOINT Spine1
		{
			OFFSET 0.00 9.75 0.00
			CHANNELS 6 Xposition Yposition Zposition Yrotation Xrotation Zrotation
			JOINT Spine2
			{
				OFFSET 0.00 10.15 0.00
				CHANNELS 6 Xposition Yposition Zposition Yrotation Xrotation Zrotation
				JOINT Spine3
				{
					OFFSET 0.00 9.75 0.00
					CHANNELS 6 Xposition Yposition Zposition Yrotation Xrotation Zrotation
			 		JOINT Neck
					{
						OFFSET 0.00 10.42 0.00
						CHANNELS 6 Xposition Yposition Zposition Yrotation Xrotation Zrotation
						JOINT Head
						{
							OFFSET 0.00 9.50 0.00
							CHANNELS 6 Xposition Yposition Zposition Yrotation Xrotation Zrotation
							End Site
							{
								OFFSET 0 16.00 0
							}
						}    
					} 
					JOINT RightShoulder
	 					{
						OFFSET -3.20 6.94 0.00
						CHANNELS 6 Xposition Yposition Zposition Yrotation Xrotation Zrotation
						JOINT RightArm
						{
							OFFSET -16.00 0.00 0.00
							CHANNELS 6 Xposition Yposition Zposition Yrotation Xrotation Zrotation
							JOINT RightForeArm
							{
								OFFSET -26.50 0.00 0.00
								CHANNELS 6 Xposition Yposition Zposition Yrotation Xrotation Zrotation
								JOINT RightHand
								{
									OFFSET -26.00 0.00 0.00
									CHANNELS 6 Xposition Yposition Zposition Yrotation Xrotation Zrotation
									End Site
									{
										OFFSET -17.50 0 0
									}
								}
							}
						}	
					}
					JOINT LeftShoulder
					{
						OFFSET 3.20 6.94 0.00
						CHANNELS 6 Xposition Yposition Zposition Yrotation Xrotation Zrotation
						JOINT LeftArm
						{
							OFFSET 16.00 0.00 0.00
							CHANNELS 6 Xposition Yposition Zposition Yrotation Xrotation Zrotation
							JOINT LeftForeArm
							{
								OFFSET 26.50 0.00 0.00
								CHANNELS 6 Xposition Yposition Zposition Yrotation Xrotation Zrotation
								JOINT LeftHand
								{
									OFFSET 26.00 0.00 0.00
									CHANNELS 6 Xposition Yposition Zposition Yrotation Xrotation Zrotation
									End Site
									{
										OFFSET 17.50 0 0
									}
								}
							}
						}
					}     			
				}
			}
		} 
	} 
}
MOTION
Frames: 6
Frame Time: 0.010
-23.93 91.31 -32.40 -169.00 6.49 -2.76 -9.41 0.02 0.10 -12.92 -17.94 -6.51 0.11 -41.86 -0.33 11.08 6.91 8.63 0.01 -42.62 -0.71 4.28 0.53 7.47 9.33 0.01 -0.22 5.90 -2.41 2.48 0.31 -41.92 -0.21 1.19 6.74 6.80 0.62 -41.20 -0.17 -7.36 -15.87 -10.23 -0.02 10.46 0.06 -1.87 4.51 2.24 0.03 9.74 0.02 -0.46 1.13 0.57 -0.02 10.15 -0.04 -0.73 1.89 0.95 -0.02 9.75 -0.03 0.68 -0.44 -0.53 -0.12 10.43 0.01 0.69 -0.44 -0.53 -0.18 9.48 0.03 13.67 -5.71 -10.38 -3.21 6.89 0.14 -6.26 4.05 4.44 -15.93 -0.05 0.18 11.96 -8.92 87.36 -26.51 -0.09 0.05 2.18 2.25 -5.10 -26.00 -0.09 0.11 4.85 -5.80 1.26 3.21 6.99 -0.06 -9.28 1.99 -4.39 16.13 0.05 -0.08 -6.15 -18.47 -84.41 26.52 0.12 -0.08 -15.53 -3.75 5.76 25.95 0.01 -0.15 -9.15 16.25 -6.78 
-23.93 91.31 -32.40 -169.00 6.49 -2.76 -9.41 0.02 0.10 -12.92 -17.94 -6.51 0.11 -41.86 -0.33 11.08 6.91 8.63 0.01 -42.62 -0.71 4.28 0.53 7.47 9.33 0.01 -0.22 5.90 -2.41 2.48 0.31 -41.92 -0.21 1.19 6.74 6.80 0.62 -41.20 -0.17 -7.36 -15.87 -10.23 -0.02 10.46 0.07 -1.87 4.51 2.24 0.03 9.74 0.04 -0.46 1.13 0.57 -0.02 10.15 -0.03 -0.73 1.89 0.95 -0.02 9.75 -0.01 0.68 -0.44 -0.53 -0.13 10.43 0.04 0.69 -0.44 -0.53 -0.18 9.48 0.05 13.67 -5.71 -10.38 -3.21 6.89 0.16 -6.26 4.05 4.44 -15.93 -0.05 0.18 11.96 -8.92 87.36 -26.51 -0.09 0.05 2.18 2.25 -5.10 -26.00 -0.09 0.11 4.85 -5.80 1.26 3.21 6.99 -0.05 -9.28 1.99 -4.39 16.13 0.05 -0.08 -6.15 -18.47 -84.41 26.52 0.12 -0.08 -15.53 -3.75 5.76 25.95 0.01 -0.15 -9.15 16.25 -6.78 
-23.89 91.31 -32.47 -169.00 6.49 -2.76 -9.39 0.02 0.10 -12.92 -17.94 -6.51 0.13 -41.85 -0.39 11.07 6.91 8.63 0.03 -42.60 -0.72 4.28 0.53 7.47 9.34 0.01 -0.24 5.90 -2.41 2.48 0.33 -41.92 -0.23 1.19 6.74 6.80 0.65 -41.22 -0.18 -7.36 -15.87 -10.23 -0.02 10.46 0.07 -1.87 4.51 2.24 0.03 9.74 0.05 -0.46 1.13 0.57 -0.01 10.15 -0.02 -0.73 1.89 0.95 -0.02 9.75 -0.01 0.68 -0.44 -0.53 -0.12 10.43 0.06 0.69 -0.44 -0.53 -0.18 9.48 0.05 13.67 -5.71 -10.38 -3.21 6.89 0.19 -6.26 4.05 4.44 -15.93 -0.05 0.21 11.96 -8.92 87.36 -26.51 -0.10 0.07 2.18 2.25 -5.10 -26.00 -0.09 0.14 4.85 -5.80 1.26 3.21 6.99 -0.05 -9.28 1.99 -4.39 16.14 0.05 -0.09 -6.15 -18.47 -84.41 26.52 0.15 -0.11 -15.53 -3.75 5.76 25.96 0.05 -0.21 -9.15 16.25 -6.78 
-23.80 91.31 -32.60 -168.99 6.49 -2.76 -9.38 0.01 0.12 -12.92 -17.94 -6.51 0.16 -41.84 -0.50 11.07 6.91 8.63 0.07 -42.58 -0.75 4.28 0.53 7.46 9.36 0.02 -0.26 5.90 -2.41 2.48 0.37 -41.91 -0.27 1.19 6.74 6.80 0.71 -41.26 -0.19 -7.36 -15.87 -10.23 -0.02 10.46 0.08 -1.87 4.51 2.24 0.04 9.74 0.06 -0.46 1.13 0.57 -0.01 10.15 -0.02 -0.73 1.89 0.95 -0.02 9.75 -0.00 0.68 -0.44 -0.53 -0.12 10.43 0.07 0.69 -0.44 -0.53 -0.19 9.48 0.06 13.67 -5.71 -10.38 -3.22 6.88 0.24 -6.26 4.05 4.44 -15.93 -0.05 0.26 11.96 -8.92 87.36 -26.51 -0.10 0.11 2.18 2.25 -5.10 -26.00 -0.09 0.18 4.85 -5.80 1.26 3.21 6.99 -0.06 -9.28 1.99 -4.39 16.15 0.05 -0.11 -6.15 -18.47 -84.41 26.54 0.19 -0.18 -15.52 -3.76 5.76 25.97 0.13 -0.32 -9.14 16.24 -6.78 
-23.62 91.31 -32.87 -168.54 6.48 -2.62 -9.51 0.06 0.17 -13.10 -17.52 -6.31 0.03 -41.88 -0.21 10.57 7.56 8.52 0.05 -42.54 -0.50 4.44 -0.37 6.41 9.34 0.01 -0.22 5.78 -2.31 2.54 0.32 -41.92 -0.23 1.11 6.91 6.89 0.74 -41.31 -0.13 -7.44 -16.01 -10.44 -0.01 10.46 0.08 -1.75 4.41 2.21 0.04 9.74 0.05 -0.43 1.11 0.57 -0.01 10.15 -0.02 -0.68 1.85 0.94 -0.01 9.75 0.00 0.67 -0.43 -0.53 -0.11 10.44 0.07 0.67 -0.42 -0.53 -0.18 9.48 0.07 13.28 -5.59 -10.28 -3.21 6.89 0.19 -5.93 3.96 4.60 -15.93 -0.05 0.21 11.67 -8.87 87.24 -26.51 -0.09 0.07 2.32 2.18 -5.05 -26.00 -0.09 0.13 4.91 -5.98 1.02 3.22 6.99 -0.03 -9.41 2.15 -4.43 16.13 0.05 -0.08 -5.94 -18.52 -84.33 26.52 0.14 -0.11 -14.58 -3.92 5.79 25.96 0.05 -0.20 -9.07 16.23 -6.59 
-23.39 91.30 -33.18 -168.10 6.52 -2.48 -9.50 0.07 0.16 -13.91 -17.56 -6.21 0.03 -41.92 -0.06 10.77 8.33 8.74 0.08 -42.47 -0.37 4.35 -1.03 5.74 9.34 0.01 -0.19 5.74 -2.27 2.58 0.29 -41.92 -0.20 1.05 7.12 7.03 0.77 -41.38 -0.05 -7.57 -16.17 -10.69 -0.01 10.46 0.08 -1.63 4.29 2.19 0.05 9.74 0.05 -0.40 1.08 0.56 -0.00 10.15 -0.02 -0.64 1.80 0.92 -0.00 9.75 0.00 0.74 -0.41 -0.51 -0.09 10.44 0.07 0.74 -0.41 -0.51 -0.13 9.48 0.07 14.50 -5.18 -10.06 -3.20 6.90 0.15 -5.63 3.86 4.77 -15.94 -0.04 0.17 11.38 -8.86 87.11 -26.51 -0.07 0.05 2.43 2.10 -5.02 -26.00 -0.07 0.10 4.95 -6.06 0.85 3.22 6.99 -0.02 -9.63 2.27 -4.49 16.11 0.04 -0.07 -5.65 -18.56 -84.24 26.51 0.10 -0.07 -13.59 -4.09 5.81 25.95 0.01 -0.13 -9.02 16.20 -6.32 
